<svg width="375" height="375" viewBox="0 0 375 375" fill="none" xmlns="http://www.w3.org/2000/svg">
<style>
.s { stroke: #FFD636; }
.c { fill: #FFD636; }
@media (prefers-color-scheme: light) {
  .s { stroke: #000; }
  .c { fill: #000; }
}
</style>
<path class="c" d="M187.966 299.26C284.199 299.26 367.601 260.156 367.601 189.28C367.601 118.709 284.199 76.2441 187.966 76.2441C91.1215 76.2441 7.41406 118.709 7.41406 189.28C7.41406 260.156 91.1215 299.26 187.966 299.26ZM187.966 288.568C126.56 288.568 96.0096 238.16 96.0096 187.752C96.0096 137.344 126.56 86.9367 187.966 86.9367C248.455 86.9367 279.005 137.65 279.005 188.058C279.005 238.466 248.76 288.568 187.966 288.568Z" fill="black"/>
<path class="s" d="M187.627 82.9062V290.488" stroke="black" stroke-width="17"/>
<path class="s" d="M293.762 185.531L81.4918 185.531" stroke="black" stroke-width="17"/>
<ellipse class="s" cx="187.626" cy="187.864" rx="51.0929" ry="102.625" stroke="black" stroke-width="17"/>
</svg>
