<?xml version="1.0" standalone="no"?>
<!DOCTYPE svg PUBLIC "-//W3C//DTD SVG 20010904//EN"
 "http://www.w3.org/TR/2001/REC-SVG-20010904/DTD/svg10.dtd">
<svg version="1.0" xmlns="http://www.w3.org/2000/svg"
 width="700.000000pt" height="700.000000pt" viewBox="0 0 700.000000 700.000000"
 preserveAspectRatio="xMidYMid meet">
<metadata>
Created by potrace 1.11, written by Peter Selinger 2001-2013
</metadata>
<g transform="translate(0.000000,700.000000) scale(0.100000,-0.100000)"
fill="#000000" stroke="none">
<path d="M3328 5575 c-2 -2 -68 -5 -148 -9 -80 -3 -161 -8 -180 -10 -19 -3
-66 -8 -105 -11 -38 -3 -83 -8 -100 -10 -16 -3 -46 -7 -65 -9 -41 -5 -273 -43
-310 -51 -14 -3 -40 -8 -59 -11 -53 -9 -296 -70 -391 -98 -547 -161 -1011
-418 -1326 -734 -277 -277 -450 -614 -492 -957 -9 -80 -9 -355 1 -430 52 -388
277 -767 622 -1047 80 -65 251 -188 261 -188 3 0 18 -8 32 -19 132 -92 441
-231 717 -323 204 -67 601 -161 778 -184 15 -2 47 -6 70 -9 23 -3 53 -8 67
-10 25 -3 93 -11 185 -20 28 -3 70 -7 95 -10 277 -29 858 -24 1145 10 22 2 67
7 100 10 33 4 71 8 85 10 14 2 48 7 75 10 123 15 373 64 515 102 52 13 104 26
116 29 34 6 203 59 294 92 327 117 624 273 860 452 154 117 346 323 445 475
85 131 190 377 209 490 2 17 10 57 17 90 14 65 19 399 7 475 -4 25 -14 79 -22
120 -140 665 -726 1207 -1646 1522 -128 44 -383 111 -535 142 -44 9 -91 19
-105 21 -82 17 -314 50 -420 60 -36 3 -81 7 -100 10 -100 13 -681 29 -692 20z
m-414 -307 c-5 -7 -28 -38 -51 -68 -24 -30 -47 -59 -51 -65 -26 -33 -105 -173
-142 -250 -86 -182 -167 -430 -205 -630 -33 -169 -50 -293 -61 -440 -8 -97 -8
-97 -16 -110 -7 -11 -572 -15 -582 -4 -6 6 20 212 29 238 3 8 8 30 11 50 16
99 102 346 161 466 190 378 474 648 843 801 64 27 74 29 64 12z m1240 -12
c366 -148 657 -430 846 -821 72 -149 145 -377 170 -530 6 -33 12 -71 15 -85 2
-14 6 -48 9 -75 l4 -50 -288 0 c-159 0 -291 3 -294 6 -3 3 -8 34 -11 70 -3 35
-7 84 -10 109 -3 25 -7 68 -10 95 -3 28 -7 61 -10 75 -3 14 -7 41 -9 60 -18
147 -90 420 -157 599 -73 194 -185 396 -291 524 -22 26 -36 47 -32 47 4 0 35
-11 68 -24z m-809 -806 c0 -491 -3 -751 -10 -753 -9 -3 -600 -1 -617 2 -4 0
-5 16 -3 34 2 17 7 70 10 116 3 47 8 87 10 90 1 4 6 33 9 66 4 33 14 94 23
135 8 41 17 89 20 105 9 53 71 261 108 361 68 181 171 356 275 468 50 55 160
140 169 131 3 -3 5 -343 6 -755z m464 650 c160 -159 294 -421 380 -743 32
-120 74 -339 85 -447 16 -151 17 -207 5 -212 -8 -2 -149 -4 -314 -4 l-300 1
-3 758 -2 758 42 -23 c22 -13 71 -52 107 -88z m-1419 -1733 c5 -116 17 -263
30 -357 5 -36 12 -87 16 -115 8 -66 57 -291 83 -385 51 -189 140 -404 227
-551 62 -105 149 -225 167 -232 7 -2 9 -7 6 -11 -15 -16 -228 87 -355 172
-427 286 -687 761 -762 1392 -13 107 -42 97 293 98 224 1 295 -2 295 -11z
m955 -790 c0 -438 -2 -797 -5 -797 -14 0 -118 78 -153 114 -204 213 -353 564
-433 1016 -10 61 -14 88 -19 140 -3 30 -8 70 -10 88 -3 18 -7 79 -11 136 l-5
104 318 -1 317 -2 1 -798z m949 768 c-3 -74 -16 -249 -18 -254 -2 -4 -6 -33
-10 -66 -16 -151 -95 -495 -135 -590 -5 -11 -25 -60 -45 -110 -72 -175 -188
-358 -283 -446 -46 -43 -123 -99 -135 -99 -4 0 -8 360 -8 799 l0 799 318 -1
317 -2 -1 -30z m909 0 c-8 -219 -78 -515 -176 -741 -48 -110 -161 -308 -197
-344 -3 -3 -21 -25 -40 -50 -157 -204 -375 -369 -622 -473 -49 -20 -88 -35
-88 -33 0 2 16 24 37 48 178 211 356 624 422 978 6 30 12 64 14 75 3 11 8 40
12 65 4 25 9 53 10 62 2 9 7 48 10 85 4 37 9 76 10 85 2 9 7 68 11 130 5 96 9
135 13 145 1 1 133 1 293 0 l293 -2 -2 -30z"/>
</g>
</svg>
